<?xml version="1.0" encoding="utf-8" standalone="yes"?>
<!DOCTYPE svg PUBLIC "-//W3C//DTD SVG 1.1//EN" "http://www.w3.org/Graphics/SVG/1.1/DTD/svg11.dtd">
<svg xmlns="http://www.w3.org/2000/svg" xmlns:xlink="http://www.w3.org/1999/xlink" xmlns:dc="http://purl.org/dc/elements/1.1/" xmlns:cc="http://web.resource.org/cc/" xmlns:rdf="http://www.w3.org/1999/02/22-rdf-syntax-ns#" xmlns:sodipodi="http://sodipodi.sourceforge.net/DTD/sodipodi-0.dtd" xmlns:inkscape="http://www.inkscape.org/namespaces/inkscape" version="1.1" baseProfile="full" width="130px" height="130px" viewBox="0 0 130 130" preserveAspectRatio="xMidYMid meet" id="svg_document" style="zoom: 1;"><title id="svg_document_title">Untitled.svg</title><defs id="svg_document_defs"></defs><a id="a1" xlink:href="./devices.html"><g transform="" id="g2"><rect x="0px" height="130px" y="0px" id="background_rect" width="130px" fill="white" visibility="visible"></rect><g id="g1" transform="rotate(45 148.093826 152) scale(0.5 0.5)"><path stroke="#000000" id="path1" stroke-width="3px" d="M66,242 L66,199 L63,192.5 L66,176 L60.5,168.5 L54,168.5 L47.5,175.5 L50.5,192.5 L47.5,199 L47.5,242 L66,242 Z Z" fill="none" transform=""></path><line stroke="#000000" y1="203px" id="line2" x1="48.5px" stroke-width="5px" y2="203.5px" x2="67.5px" transform=""></line><path stroke="#000000" id="path2" stroke-width="3px" d="M83,242.5 L31.5,242 L31.5,356 A7,7 0 0 0 39,364 L76.5,364 A7,7 0 0 0 83.5,355.5 L83,242.5 Z Z" fill="none" transform=""></path><line stroke="#000000" y1="363px" id="line1" x1="47px" stroke-width="3px" y2="439px" x2="47px" transform=""></line><line stroke="#000000" y1="363px" x1="67px" stroke-width="3px" y2="439px" x2="67px" transform="" id="line3"></line></g></g></a></svg>