<?xml version="1.0" encoding="UTF-8" standalone="yes"?><svg  xmlns="http://www.w3.org/2000/svg" xmlns:xlink="http://www.w3.org/1999/xlink" style="zoom: 1;" height="130px" id="gearsvg" width="130px" version="1.1" viewBox="0 0 130 130"><a id="a1" xlink:href="../settings.html" target="_parent"><rect stroke="none" height="130" x="0" id="rect1" stroke-width="3" width="130" y="0" fill="white" transform=""></rect><path d="M61.513504,12.443199 C60.395401,12.51976 59.30851,12.692884 58.20993,12.818623 H58.135529 L55.507835,27.158836 C51.224564,28.134155 47.195358,29.78952 43.570042,32.038971 L31.77504,23.555016 C28.588535,26.028854 25.688835,28.914093 23.141273,32.038971 L31.324959,43.976822 C28.840244,47.774014 26.9716,52.110085 25.919197,56.664963 C25.919079,56.686707 25.919079,56.736404 25.919197,56.739899 L11.653908,58.992302 C11.39316,61.122467 11.278526,63.323975 11.278526,65.524216 C11.278526,67.324463 11.328236,69.100655 11.503687,70.854843 L25.768986,73.407547 C26.783504,78.361382 28.710812,82.987732 31.399853,87.07225 L22.915859,98.709747 C25.345631,101.726189 28.150734,104.472565 31.174461,106.893433 L43.187164,98.634827 C47.385567,101.313042 52.072266,103.191002 57.152176,104.115692 L59.404465,118.306046 C61.005104,118.451691 62.646606,118.456223 64.284813,118.456223 C66.597527,118.456223 68.806801,118.368561 71.041977,118.080841 L73.744949,103.590179 C78.568016,102.389832 83.099045,100.307556 87.033745,97.508682 L98.595642,105.917816 C101.594101,103.366814 104.335999,100.434578 106.70443,97.28331 L98.295334,85.120117 C100.572708,81.187149 102.150436,76.847527 102.950203,72.20652 L117.14064,69.954079 C117.265503,68.473328 117.289719,67.037231 117.289719,65.524391 C117.289703,62.895409 116.983978,60.317795 116.613815,57.791443 L102.1987,55.163605 C101.069016,50.992279 99.215492,47.100372 96.868179,43.601059 L105.35218,31.963562 C102.722351,28.747467 99.722504,25.776524 96.418076,23.254147 L84.179977,31.66325 C80.662613,29.582989 76.877571,27.986923 72.767883,27.083344 L70.515587,12.818066 C68.465553,12.576881 66.398521,12.442684 64.284111,12.442684 C63.712517,12.442684 63.124413,12.425896 62.557076,12.442684 C62.280602,12.451488 62.006927,12.425896 61.731354,12.442684 C61.656952,12.447598 61.580002,12.437771 61.50547,12.442684 M63.457626,48.931587 C63.732086,48.916634 64.005905,48.931549 64.283638,48.931549 C73.170837,48.931549 80.425613,56.186363 80.425613,65.073563 S73.170815,81.140663 64.283638,81.140663 S48.216534,73.960754 48.216534,65.073563 C48.216534,56.464249 54.954803,49.362717 63.457642,48.931549  z " id="gear" stroke-width="3px" stroke="black" fill="none"></path></a></svg>