<?xml version="1.0" encoding="utf-8" standalone="yes"?>
<!DOCTYPE svg PUBLIC "-//W3C//DTD SVG 1.1//EN" "http://www.w3.org/Graphics/SVG/1.1/DTD/svg11.dtd">
<svg xmlns="http://www.w3.org/2000/svg" xmlns:xlink="http://www.w3.org/1999/xlink" xmlns:dc="http://purl.org/dc/elements/1.1/" xmlns:cc="http://web.resource.org/cc/" xmlns:rdf="http://www.w3.org/1999/02/22-rdf-syntax-ns#" xmlns:sodipodi="http://sodipodi.sourceforge.net/DTD/sodipodi-0.dtd" xmlns:inkscape="http://www.inkscape.org/namespaces/inkscape" version="1.1" baseProfile="full" width="100%" height="auto" viewBox="0 0 512 512" preserveAspectRatio="xMidYMid meet" id="svg_document" style="zoom: 1;"><title id="svg_document_title">Untitled.svg</title><defs id="svg_document_defs"><filter y="-25%" id="shadow-filter" width="200%" height="200%" x="-25%"><feOffset result="offOut" in="SourceAlpha" dx="5" dy="5" id="feOffset2"></feOffset><feGaussianBlur result="blurOut" in="offOut" stdDeviation="10" id="feGaussianBlur2"></feGaussianBlur><feBlend in="SourceGraphic" in2="blurOut" mode="normal" id="feBlend1"></feBlend></filter><filter y="0" id="shallow-shadow-filter" width="200%" height="200%" x="0" visibility="visible"><feOffset result="offOut" id="feOffset3" dy="2" in="SourceAlpha" dx="2"></feOffset><feGaussianBlur result="blurOut" id="feGaussianBlur3" in="offOut" stdDeviation="2"></feGaussianBlur><feBlend in="SourceGraphic" in2="blurOut" mode="lighten" id="feBlend2"></feBlend></filter><filter y="0" id="shallow-shadow-filter2" width="200%" height="200%" x="0" visibility="visible"><feOffset result="offOut" id="feOffset4" dy="-2" in="SourceAlpha" dx="-2"></feOffset><feGaussianBlur result="blurOut" in="offOut" stdDeviation="2" id="feGaussianBlur4"></feGaussianBlur><feBlend in="SourceGraphic" in2="blurOut" mode="lighten" id="feBlend3"></feBlend></filter><pattern id="mesh-pattern" patternUnits="userSpaceOnUse" width="10" height="10" visibility="visible"><g id="mesh-group" transform=""><rect stroke="none" height="10px" x="0px" id="rect2" y="0px" d="" width="10px" fill="silver" transform=""></rect><path stroke="#000000" transform="" id="path1" stroke-width="0.324px" d="M-3.5,9.84375 C-1.920498,9.209251 -1.313,8.088753 0.1045,8.102249 C1.657001,8.115753 1.940502,9.209251 3.560501,9.938248 C1.927002,10.680748 1.400501,11.571754 0.145,11.55825 C-1.501999,11.55825 -2.177002,10.505249 -3.5,9.84375 Z" fill="black" stroke-linecap="butt" stroke-linejoin="miter"></path><path stroke="#000000" transform="" stroke-width="0.324px" id="path2" d="M-3.5,0.0625 C-1.920499,-0.572001 -1.313,-1.692501 0.104501,-1.679001 C1.657001,-1.665499 1.9405,-0.572001 3.560501,0.157 C1.927,0.8995 1.4005,1.790501 0.145,1.777 C-1.502,1.777 -2.177,0.723999 -3.5,0.0625 Z" fill="black" stroke-linecap="butt" stroke-linejoin="miter"></path><path stroke="#000000" stroke-width="0.324px" id="path3" d="M6.4375,0.0625 C8.016998,-0.572001 8.624504,-1.692501 10.042,-1.679001 C11.594498,-1.665499 11.877998,-0.572001 13.498001,0.157 C11.864502,0.8995 11.337997,1.790501 10.082497,1.777 C8.435501,1.777 7.760498,0.723999 6.4375,0.0625 Z" fill="black" stroke-linecap="butt" transform="" stroke-linejoin="miter"></path><path stroke="#000000" stroke-linejoin="miter" stroke-width="0.324px" id="path4" d="M1.5,4.25 C3.079501,3.615501 3.687,2.495003 5.104501,2.508499 C6.657001,2.522003 6.9405,3.615501 8.560501,4.344498 C6.927,5.086998 6.4005,5.977997 5.145,5.9645 C3.498,5.9645 2.822999,4.911499 1.5,4.25 Z" fill="black" stroke-linecap="butt" transform=""></path><path stroke="#000000" stroke-width="0.324px" id="path5" d="M6.4375,9.96875 C8.016998,9.334251 8.624504,8.213753 10.042,8.227249 C11.594498,8.240753 11.877998,9.334251 13.498001,10.063248 C11.864502,10.805748 11.337997,11.696747 10.082497,11.68325 C8.435501,11.68325 7.760498,10.630249 6.4375,9.96875 Z" fill="black" stroke-linecap="butt" transform="" stroke-linejoin="miter"></path></g></pattern><filter height="512" x="0" y="0" id="case-gloss" filterUnits="userSpaceOnUse" width="512" visibility="visible"><desc id="desc1">Produces a 3D lighting effect.</desc><feGaussianBlur in="SourceAlpha" stdDeviation="4" result="blur" id="feGaussianBlur1"></feGaussianBlur><feOffset in="blur" dx="4" dy="4" result="offsetBlur" id="feOffset1"></feOffset><feSpecularLighting result="specOut" in="blur" specularConstant="0.5" id="feSpecularLighting1" surfaceScale="9" lighting-color="#bbbbbb" specularExponent="5"><feDistantLight id="feDistantLight1" elevation="-30" azimuth="135"></feDistantLight></feSpecularLighting><feComposite in="specOut" in2="SourceAlpha" operator="in" result="specOut" id="feComposite1"></feComposite><feComposite in="SourceGraphic" in2="specOut" operator="arithmetic" k1="0" k2="1" k3="1" k4="0" result="litPaint" id="feComposite1"></feComposite><feMerge id="feMerge1"><feMergeNode in="offsetBlur" id="feMergeNode1"></feMergeNode><feMergeNode id="feMergeNode1a" in="litPaint"></feMergeNode></feMerge><feComponentTransfer id="feComponentTransfer1"><feFuncA id="feFuncA1" type="linear" slope="0.5"></feFuncA><feFuncB id="feFuncB1" type="linear" slope="1"></feFuncB><feFuncG id="feFuncG1" type="linear" slope="1"></feFuncG><feFuncR id="feFuncR1" type="linear" slope="1"></feFuncR></feComponentTransfer></filter><style id="Ubuntu Condensed_Google_Webfont_import">@import url(https://fonts.googleapis.com/css?family=Ubuntu+Condensed);</style><radialGradient id="radialGradient1" cx="50%" cy="50%" fx="50%" fy="50%" r="50%"><stop id="stop1" offset="0%" stop-color="white"></stop><stop id="stop2" offset="100%" stop-color="gold"></stop></radialGradient><radialGradient id="radialGradient2" cx="50%" cy="50%" fx="50%" fy="50%" r="50%"><stop id="stop3" offset="0%" stop-color="darkgrey"></stop><stop id="stop4" offset="100%" stop-color="black"></stop></radialGradient></defs><g id="main_group" visibility="visible"><rect id="background_rect" fill="#90ee90" x="0px" y="0px" width="512px" height="512px" visibility="hidden"></rect><image id="image1" xlink:role="file:///Users/dsward/Desktop/RedRadioIcon/WP_20161221_18_05_04_Pro.jpg" x="45.5" xlink:href="file:///Users/dsward/Desktop/RedRadioIcon/WP_20161221_18_05_04_Pro.jpg" y="-76.5" width="429" transform="" d="" preserveAspectRatio="xMidYMid meet" visibility="hidden" height="650"></image><rect stroke="#000000" id="rect1" stroke-width="3px" x="64.5px" rx="10" y="49px" width="303.5px" fill="#ff2c49" transform="" ry="10" d="" height="484.5px" visibility="hidden"></rect><g id="case-group" transform="" visibility="visible"><path stroke="none" visibility="visible" id="case-main" stroke-width="3px" d="M260,12 L404,25.5 A10,10 0 0 1 414.5,38.5 L387,480 A10,10 0 0 1 373.5,490 L260,490 L146.5,490 A10,10 0 0 1 133,480 L105.5,38.5 A10,10 0 0 1 116,25.5 L260,12 M260,12 Z" fill="#ff3c4b" transform=""></path><path stroke="none" filter="url(#case-gloss)" transform="" id="case-gloss" stroke-width="3px" d="M260,12 L404,25.5 A10,10 0 0 1 414.5,38.5 L387,480 A10,10 0 0 1 373.5,490 L260,490 L146.5,490 A10,10 0 0 1 133,480 L105.5,38.5 A10,10 0 0 1 116,25.5 L260,12 M260,12  Z " fill="#ff3c4b" visibility="visible"></path><path stroke="none" id="case-top" stroke-width="3px" d="M260,12 L384.5,20.5 A10,10 0 0 1 391,23.5 L396,196 L260,236.5 L124,196 L129,23.5 A10,10 0 0 1 135.5,20.5 L260,12 M260,12 " fill="#ff3c4b" transform="" visibility="visible"></path><path stroke="none" filter="url(#case-gloss)" transform="" stroke-width="3px" id="case-top-gloss" d="M260,12 L384.5,20.5 A10,10 0 0 1 391,23.5 L396,196 L260,236.5 L124,196 L129,23.5 A10,10 0 0 1 135.5,20.5 L260,12 M260,12 " fill="#ff3c4b" visibility="visible"></path><path stroke="none" filter="url(#shallow-shadow-filter)" transform="" id="case-speaker" stroke-width="3px" d="M260,464 L342.5,464.5 A8,8 0 0 0 354,456 L396,196 L260,236.5 L124,196 L166,456 A8,8 0 0 0 177.5,464.5 L260,464 M260,464" fill="url(#radialGradient1)" visibility="visible"></path><path stroke="none" filter="url(#shallow-shadow-filter2)" visibility="visible" id="speaker-grill" stroke-width="2.4px" d="M260,440 L326,440.399994 A6.4,6.4 0 0 0 335.200012,433.600006 L368.799988,225.599991 L260,258 L151.199997,225.599991 L184.800003,433.600006 A6.4,6.4 0 0 0 194,440.399994 L260,440 M260,440" fill="url(#mesh-pattern)" transform=""></path></g><g id="tuner-group" transform=""><path filter="url(#shadow-filter)" stroke="black" id="tuner-outer-path" stroke-width="3" d="M260,204.75 C235.147171,204.75 213.933975,195.963196 196.360382,178.389603 C178.786804,160.816025 170,139.602814 170,114.749992 C170,89.897179 178.786804,68.683975 196.360382,51.110397 C213.933975,33.536804 235.147186,24.75 260,24.750004 C284.852814,24.750004 306.06601,33.536797 323.639587,51.11039 C341.213196,68.683975 350,89.897179 350,114.75 C350,139.602814 341.213196,160.81601 323.639587,178.389603 C306.06601,195.963196 284.852814,204.75 260,204.75 Z" fill="url(#radialGradient1)"></path><path d="M260,204.75 C235.147171,204.75 213.933975,195.963196 196.360382,178.389603 C178.786804,160.816025 170,139.602814 170,114.749992 C170,89.897179 178.786804,68.683975 196.360382,51.110397 C213.933975,33.536804 235.147186,24.75 260,24.750004 C284.852814,24.750004 306.06601,33.536797 323.639587,51.11039 C341.213196,68.683975 350,89.897179 350,114.75 C350,139.602814 341.213196,160.81601 323.639587,178.389603 C306.06601,195.963196 284.852814,204.75 260,204.75 Z" stroke-width="12.5" stroke="#e9b000" id="path7" fill="none"></path><path stroke="gold" stroke-width="12.5" id="path6" d="M260,204.75 C235.147171,204.75 213.933975,195.963196 196.360382,178.389603 C178.786804,160.816025 170,139.602814 170,114.749992 C170,89.897179 178.786804,68.683975 196.360382,51.110397 C213.933975,33.536804 235.147186,24.75 260,24.750004 C284.852814,24.750004 306.06601,33.536797 323.639587,51.11039 C341.213196,68.683975 350,89.897179 350,114.75 C350,139.602814 341.213196,160.81601 323.639587,178.389603 C306.06601,195.963196 284.852814,204.75 260,204.75 Z" fill="none" stroke-dasharray="10, 10"></path><path filter="url(#shadow-filter)" stroke="#e90000" id="tuner-red-line" stroke-width="8px" d="M262,29 V100" fill="none" stroke-linecap="round" transform=""></path><path filter="url(#shadow-filter)" stroke="black" id="tuner-inner-path" stroke-width="3" d="M261,146.5 C252.163452,146.5 244.620972,143.375809 238.372589,137.127411 C232.124191,130.879028 229,123.336555 229,114.5 C229,105.663445 232.124207,98.120972 238.372589,91.872589 C244.620972,85.624199 252.163452,82.5 261,82.5 C269.836548,82.5 277.379028,85.624191 283.627411,91.872581 C289.875793,98.120972 293,105.663445 293,114.5 C293,123.336555 289.875793,130.879028 283.627411,137.127411 C277.379028,143.375809 269.836548,146.5 261,146.5 Z" text-anchor="middle" fill="url(#radialGradient2)"></path><text stroke="none" id="text1" style="outline-style:none;" stroke-width="1px" x="296.25px" text-rendering="geometricPrecision" font-family="Ubuntu Condensed" fill="#4b4361" font-size="33px" transform="" y="52.5px" text-anchor="middle" filter="url(#shallow-shadow-filter)"><textPath xlink:href="#tuner-outer-path"><tspan id="tspan1" dx="-10,4,4,20,20,20,15,15,4,15,15,4" dy="36,0,0,0,0,0,0,0,0,0" rotate="0">5.56∆7810∆16</tspan></textPath></text></g></g><g id="profiles" transform="" visibility="hidden"><path stroke="#000000" visibility="hidden" id="case-profile" stroke-width="3px" d="M260,12 L404,25.5 A10,10 0 0 1 414.5,38.5 L387,480 A10,10 0 0 1 373.5,490 L260,490" fill="none" transform=""></path><path stroke="#000000" visibility="hidden" stroke-width="3px" id="case-top-profile" d="M260,12 L384.5,20.5 A10,10 0 0 1 391,23.5 L396,196 L260,236.5" fill="none" transform=""></path><path stroke="#000000" visibility="hidden" id="speaker-profile" stroke-width="3px" d="M260,464 L342.5,464.5 A8,8 0 0 0 354,456 L396,196 L260,236.5" fill="none" transform=""></path></g></svg>