<?xml version="1.0" encoding="utf-8" standalone="yes"?><svg xmlns="http://www.w3.org/2000/svg" xmlns:xlink="http://www.w3.org/1999/xlink" x="0px" style="zoom: 1;" height="130px" id="svg_radio" width="130px" y="0px" version="1.1" viewBox="0 0 130 130"><a id="a1" xlink:href="../tuner.html" target="_parent"><rect stroke="none" height="130" x="0" id="rect1" stroke-width="3" width="130" y="0" fill="white" transform=""></rect><path d="M15.900002,35.299999 C11.900002,36.899998 9.099998,40.899998 9.099998,45.5 V111.5 C9.099998,117.5 14.099998,122.499985 20.099998,122.499985 H108.099998 C114.099998,122.499985 119.099998,117.5 119.099998,111.5 V45.499996 C119.099998,39.5 114.099998,34.5 108.099998,34.5 H43.699997 L89.099998,16.1 L85.299995,6.899998 L15.900002,35.299999  z M36.699997,111.5 C27.5,111.5 20.099998,104.100006 20.099998,94.900009 S27.5,78.300003 36.699997,78.300003 S53.299995,85.700012 53.299995,94.900009 S45.699997,111.5 36.699997,111.5  z M108.099998,67.5 H97.099998 V56.500004 H86.099998 V67.5 H20.099998 V45.500004 H108.099998 V67.5  z " stroke-width="3px" stroke="black" class="st0" fill="white"></path></a></svg>